<?xml version="1.0" encoding="UTF-8"?>
<svg version="1.1" xmlns="http://www.w3.org/2000/svg" width="9982" height="8694">
<path d="M0 0 C106.26 0 212.52 0 322 0 C322 106.26 322 212.52 322 322 C428.26 322 534.52 322 644 322 C644 428.26 644 534.52 644 644 C856.52 644 1069.04 644 1288 644 C1288 750.26 1288 856.52 1288 966 C1500.52 966 1713.04 966 1932 966 C1932 1072.26 1932 1178.52 1932 1288 C2038.26 1288 2144.52 1288 2254 1288 C2254 1181.74 2254 1075.48 2254 966 C2466.52 966 2679.04 966 2898 966 C2898 859.74 2898 753.48 2898 644 C3641.82 644 4385.64 644 5152 644 C5152 750.26 5152 856.52 5152 966 C5364.52 966 5577.04 966 5796 966 C5796 1072.26 5796 1178.52 5796 1288 C5902.26 1288 6008.52 1288 6118 1288 C6118 1181.74 6118 1075.48 6118 966 C6330.52 966 6543.04 966 6762 966 C6762 859.74 6762 753.48 6762 644 C6974.52 644 7187.04 644 7406 644 C7406 537.74 7406 431.48 7406 322 C7512.26 322 7618.52 322 7728 322 C7728 215.74 7728 109.48 7728 0 C7834.26 0 7940.52 0 8050 0 C8050 106.26 8050 212.52 8050 322 C8156.26 322 8262.52 322 8372 322 C8372 534.52 8372 747.04 8372 966 C8478.26 966 8584.52 966 8694 966 C8694 1178.52 8694 1391.04 8694 1610 C8800.26 1610 8906.52 1610 9016 1610 C9016 2035.04 9016 2460.08 9016 2898 C8909.74 2898 8803.48 2898 8694 2898 C8694 3004.26 8694 3110.52 8694 3220 C8587.74 3220 8481.48 3220 8372 3220 C8372 3538.78 8372 3857.56 8372 4186 C8478.26 4186 8584.52 4186 8694 4186 C8694 4398.52 8694 4611.04 8694 4830 C8800.26 4830 8906.52 4830 9016 4830 C9016 5148.78 9016 5467.56 9016 5796 C8909.74 5796 8803.48 5796 8694 5796 C8694 6008.52 8694 6221.04 8694 6440 C8587.74 6440 8481.48 6440 8372 6440 C8372 6652.52 8372 6865.04 8372 7084 C8265.74 7084 8159.48 7084 8050 7084 C8050 7190.26 8050 7296.52 8050 7406 C7943.74 7406 7837.48 7406 7728 7406 C7728 7512.26 7728 7618.52 7728 7728 C7515.48 7728 7302.96 7728 7084 7728 C7084 7834.26 7084 7940.52 7084 8050 C6765.22 8050 6446.44 8050 6118 8050 C6118 8156.26 6118 8262.52 6118 8372 C5586.7 8372 5055.4 8372 4508 8372 C4508 8478.26 4508 8584.52 4508 8694 C4189.22 8694 3870.44 8694 3542 8694 C3542 8587.74 3542 8481.48 3542 8372 C3010.7 8372 2479.4 8372 1932 8372 C1932 8265.74 1932 8159.48 1932 8050 C1613.22 8050 1294.44 8050 966 8050 C966 7943.74 966 7837.48 966 7728 C753.48 7728 540.96 7728 322 7728 C322 7621.74 322 7515.48 322 7406 C215.74 7406 109.48 7406 0 7406 C0 7299.74 0 7193.48 0 7084 C-106.26 7084 -212.52 7084 -322 7084 C-322 6871.48 -322 6658.96 -322 6440 C-428.26 6440 -534.52 6440 -644 6440 C-644 6227.48 -644 6014.96 -644 5796 C-750.26 5796 -856.52 5796 -966 5796 C-966 5477.22 -966 5158.44 -966 4830 C-859.74 4830 -753.48 4830 -644 4830 C-644 4617.48 -644 4404.96 -644 4186 C-537.74 4186 -431.48 4186 -322 4186 C-322 3867.22 -322 3548.44 -322 3220 C-428.26 3220 -534.52 3220 -644 3220 C-644 3113.74 -644 3007.48 -644 2898 C-750.26 2898 -856.52 2898 -966 2898 C-966 2472.96 -966 2047.92 -966 1610 C-859.74 1610 -753.48 1610 -644 1610 C-644 1397.48 -644 1184.96 -644 966 C-537.74 966 -431.48 966 -322 966 C-322 753.48 -322 540.96 -322 322 C-215.74 322 -109.48 322 0 322 C0 215.74 0 109.48 0 0 Z " fill="#19223C" transform="translate(966,0)"/>
<path d="M0 0 C318.78 0 637.56 0 966 0 C966 106.26 966 212.52 966 322 C1072.26 322 1178.52 322 1288 322 C1288 534.52 1288 747.04 1288 966 C1394.26 966 1500.52 966 1610 966 C1610 1072.26 1610 1178.52 1610 1288 C1716.26 1288 1822.52 1288 1932 1288 C1932 1394.26 1932 1500.52 1932 1610 C2463.3 1610 2994.6 1610 3542 1610 C3542 1503.74 3542 1397.48 3542 1288 C3648.26 1288 3754.52 1288 3864 1288 C3864 1181.74 3864 1075.48 3864 966 C4076.52 966 4289.04 966 4508 966 C4508 859.74 4508 753.48 4508 644 C4826.78 644 5145.56 644 5474 644 C5474 962.78 5474 1281.56 5474 1610 C5367.74 1610 5261.48 1610 5152 1610 C5152 1822.52 5152 2035.04 5152 2254 C5045.74 2254 4939.48 2254 4830 2254 C4830 2466.52 4830 2679.04 4830 2898 C4723.74 2898 4617.48 2898 4508 2898 C4508 3004.26 4508 3110.52 4508 3220 C4401.74 3220 4295.48 3220 4186 3220 C4186 3326.26 4186 3432.52 4186 3542 C3973.48 3542 3760.96 3542 3542 3542 C3542 3648.26 3542 3754.52 3542 3864 C3223.22 3864 2904.44 3864 2576 3864 C2576 3970.26 2576 4076.52 2576 4186 C2044.7 4186 1513.4 4186 966 4186 C966 4292.26 966 4398.52 966 4508 C647.22 4508 328.44 4508 0 4508 C0 4401.74 0 4295.48 0 4186 C-531.3 4186 -1062.6 4186 -1610 4186 C-1610 4079.74 -1610 3973.48 -1610 3864 C-1928.78 3864 -2247.56 3864 -2576 3864 C-2576 3757.74 -2576 3651.48 -2576 3542 C-2788.52 3542 -3001.04 3542 -3220 3542 C-3220 3435.74 -3220 3329.48 -3220 3220 C-3326.26 3220 -3432.52 3220 -3542 3220 C-3542 3113.74 -3542 3007.48 -3542 2898 C-3648.26 2898 -3754.52 2898 -3864 2898 C-3864 2685.48 -3864 2472.96 -3864 2254 C-3970.26 2254 -4076.52 2254 -4186 2254 C-4186 2041.48 -4186 1828.96 -4186 1610 C-4292.26 1610 -4398.52 1610 -4508 1610 C-4508 1291.22 -4508 972.44 -4508 644 C-4189.22 644 -3870.44 644 -3542 644 C-3542 750.26 -3542 856.52 -3542 966 C-3329.48 966 -3116.96 966 -2898 966 C-2898 1072.26 -2898 1178.52 -2898 1288 C-2791.74 1288 -2685.48 1288 -2576 1288 C-2576 1394.26 -2576 1500.52 -2576 1610 C-2044.7 1610 -1513.4 1610 -966 1610 C-966 1503.74 -966 1397.48 -966 1288 C-859.74 1288 -753.48 1288 -644 1288 C-644 1181.74 -644 1075.48 -644 966 C-537.74 966 -431.48 966 -322 966 C-322 753.48 -322 540.96 -322 322 C-215.74 322 -109.48 322 0 322 C0 215.74 0 109.48 0 0 Z " fill="#A6B5CB" transform="translate(4508,4186)"/>
<path d="M0 0 C425.04 0 850.08 0 1288 0 C1288 106.26 1288 212.52 1288 322 C1500.52 322 1713.04 322 1932 322 C1932 534.52 1932 747.04 1932 966 C2250.78 966 2569.56 966 2898 966 C2898 859.74 2898 753.48 2898 644 C3641.82 644 4385.64 644 5152 644 C5152 750.26 5152 856.52 5152 966 C5470.78 966 5789.56 966 6118 966 C6118 1072.26 6118 1178.52 6118 1288 C6011.74 1288 5905.48 1288 5796 1288 C5796 1394.26 5796 1500.52 5796 1610 C6008.52 1610 6221.04 1610 6440 1610 C6440 1716.26 6440 1822.52 6440 1932 C6546.26 1932 6652.52 1932 6762 1932 C6762 1825.74 6762 1719.48 6762 1610 C6974.52 1610 7187.04 1610 7406 1610 C7406 1503.74 7406 1397.48 7406 1288 C7512.26 1288 7618.52 1288 7728 1288 C7728 1181.74 7728 1075.48 7728 966 C7940.52 966 8153.04 966 8372 966 C8372 1072.26 8372 1178.52 8372 1288 C8478.26 1288 8584.52 1288 8694 1288 C8694 1394.26 8694 1500.52 8694 1610 C8587.74 1610 8481.48 1610 8372 1610 C8372 1716.26 8372 1822.52 8372 1932 C8265.74 1932 8159.48 1932 8050 1932 C8050 2038.26 8050 2144.52 8050 2254 C7943.74 2254 7837.48 2254 7728 2254 C7728 2147.74 7728 2041.48 7728 1932 C7515.48 1932 7302.96 1932 7084 1932 C7084 2038.26 7084 2144.52 7084 2254 C6977.74 2254 6871.48 2254 6762 2254 C6762 2360.26 6762 2466.52 6762 2576 C6443.22 2576 6124.44 2576 5796 2576 C5796 2469.74 5796 2363.48 5796 2254 C5689.74 2254 5583.48 2254 5474 2254 C5474 2360.26 5474 2466.52 5474 2576 C5367.74 2576 5261.48 2576 5152 2576 C5152 2682.26 5152 2788.52 5152 2898 C4939.48 2898 4726.96 2898 4508 2898 C4508 3004.26 4508 3110.52 4508 3220 C4189.22 3220 3870.44 3220 3542 3220 C3542 3113.74 3542 3007.48 3542 2898 C3329.48 2898 3116.96 2898 2898 2898 C2898 2791.74 2898 2685.48 2898 2576 C2791.74 2576 2685.48 2576 2576 2576 C2576 2469.74 2576 2363.48 2576 2254 C2469.74 2254 2363.48 2254 2254 2254 C2254 2360.26 2254 2466.52 2254 2576 C1935.22 2576 1616.44 2576 1288 2576 C1288 2469.74 1288 2363.48 1288 2254 C1181.74 2254 1075.48 2254 966 2254 C966 2147.74 966 2041.48 966 1932 C859.74 1932 753.48 1932 644 1932 C644 1825.74 644 1719.48 644 1610 C431.48 1610 218.96 1610 0 1610 C0 1503.74 0 1397.48 0 1288 C-106.26 1288 -212.52 1288 -322 1288 C-322 1181.74 -322 1075.48 -322 966 C-109.48 966 103.04 966 322 966 C322 859.74 322 753.48 322 644 C215.74 644 109.48 644 0 644 C0 431.48 0 218.96 0 0 Z " fill="#AED1F5" transform="translate(966,644)"/>
<path d="M0 0 C318.78 0 637.56 0 966 0 C966 106.26 966 212.52 966 322 C1072.26 322 1178.52 322 1288 322 C1288 534.52 1288 747.04 1288 966 C1394.26 966 1500.52 966 1610 966 C1610 1072.26 1610 1178.52 1610 1288 C1716.26 1288 1822.52 1288 1932 1288 C1932 1500.52 1932 1713.04 1932 1932 C2038.26 1932 2144.52 1932 2254 1932 C2254 2038.26 2254 2144.52 2254 2254 C2679.04 2254 3104.08 2254 3542 2254 C3542 2147.74 3542 2041.48 3542 1932 C3648.26 1932 3754.52 1932 3864 1932 C3864 1825.74 3864 1719.48 3864 1610 C3970.26 1610 4076.52 1610 4186 1610 C4186 1503.74 4186 1397.48 4186 1288 C4398.52 1288 4611.04 1288 4830 1288 C4830 1394.26 4830 1500.52 4830 1610 C4723.74 1610 4617.48 1610 4508 1610 C4508 1716.26 4508 1822.52 4508 1932 C4401.74 1932 4295.48 1932 4186 1932 C4186 2038.26 4186 2144.52 4186 2254 C4079.74 2254 3973.48 2254 3864 2254 C3864 2360.26 3864 2466.52 3864 2576 C3545.22 2576 3226.44 2576 2898 2576 C2898 2682.26 2898 2788.52 2898 2898 C2579.22 2898 2260.44 2898 1932 2898 C1932 3004.26 1932 3110.52 1932 3220 C1719.48 3220 1506.96 3220 1288 3220 C1288 3326.26 1288 3432.52 1288 3542 C756.7 3542 225.4 3542 -322 3542 C-322 3435.74 -322 3329.48 -322 3220 C-640.78 3220 -959.56 3220 -1288 3220 C-1288 3113.74 -1288 3007.48 -1288 2898 C-1606.78 2898 -1925.56 2898 -2254 2898 C-2254 2791.74 -2254 2685.48 -2254 2576 C-2466.52 2576 -2679.04 2576 -2898 2576 C-2898 2469.74 -2898 2363.48 -2898 2254 C-3004.26 2254 -3110.52 2254 -3220 2254 C-3220 2147.74 -3220 2041.48 -3220 1932 C-3326.26 1932 -3432.52 1932 -3542 1932 C-3542 1825.74 -3542 1719.48 -3542 1610 C-3648.26 1610 -3754.52 1610 -3864 1610 C-3864 1503.74 -3864 1397.48 -3864 1288 C-3651.48 1288 -3438.96 1288 -3220 1288 C-3220 1394.26 -3220 1500.52 -3220 1610 C-3113.74 1610 -3007.48 1610 -2898 1610 C-2898 1716.26 -2898 1822.52 -2898 1932 C-2791.74 1932 -2685.48 1932 -2576 1932 C-2576 2038.26 -2576 2144.52 -2576 2254 C-2150.96 2254 -1725.92 2254 -1288 2254 C-1288 2147.74 -1288 2041.48 -1288 1932 C-1181.74 1932 -1075.48 1932 -966 1932 C-966 1719.48 -966 1506.96 -966 1288 C-859.74 1288 -753.48 1288 -644 1288 C-644 1181.74 -644 1075.48 -644 966 C-537.74 966 -431.48 966 -322 966 C-322 753.48 -322 540.96 -322 322 C-215.74 322 -109.48 322 0 322 C0 215.74 0 109.48 0 0 Z " fill="#FDFFFE" transform="translate(4508,4186)"/>
<path d="M0 0 C212.52 0 425.04 0 644 0 C644 106.26 644 212.52 644 322 C750.26 322 856.52 322 966 322 C966 428.26 966 534.52 966 644 C859.74 644 753.48 644 644 644 C644 750.26 644 856.52 644 966 C537.74 966 431.48 966 322 966 C322 1072.26 322 1178.52 322 1288 C215.74 1288 109.48 1288 0 1288 C0 1181.74 0 1075.48 0 966 C-212.52 966 -425.04 966 -644 966 C-644 1072.26 -644 1178.52 -644 1288 C-750.26 1288 -856.52 1288 -966 1288 C-966 1394.26 -966 1500.52 -966 1610 C-1284.78 1610 -1603.56 1610 -1932 1610 C-1932 1503.74 -1932 1397.48 -1932 1288 C-2038.26 1288 -2144.52 1288 -2254 1288 C-2254 1394.26 -2254 1500.52 -2254 1610 C-2360.26 1610 -2466.52 1610 -2576 1610 C-2576 1716.26 -2576 1822.52 -2576 1932 C-2788.52 1932 -3001.04 1932 -3220 1932 C-3220 2038.26 -3220 2144.52 -3220 2254 C-3538.78 2254 -3857.56 2254 -4186 2254 C-4186 2147.74 -4186 2041.48 -4186 1932 C-4398.52 1932 -4611.04 1932 -4830 1932 C-4830 1825.74 -4830 1719.48 -4830 1610 C-4936.26 1610 -5042.52 1610 -5152 1610 C-5152 1503.74 -5152 1397.48 -5152 1288 C-5470.78 1288 -5789.56 1288 -6118 1288 C-6118 1075.48 -6118 862.96 -6118 644 C-5586.7 644 -5055.4 644 -4508 644 C-4508 856.52 -4508 1069.04 -4508 1288 C-3976.7 1288 -3445.4 1288 -2898 1288 C-2898 1181.74 -2898 1075.48 -2898 966 C-2791.74 966 -2685.48 966 -2576 966 C-2576 859.74 -2576 753.48 -2576 644 C-2150.96 644 -1725.92 644 -1288 644 C-1288 750.26 -1288 856.52 -1288 966 C-1181.74 966 -1075.48 966 -966 966 C-966 859.74 -966 753.48 -966 644 C-753.48 644 -540.96 644 -322 644 C-322 537.74 -322 431.48 -322 322 C-215.74 322 -109.48 322 0 322 C0 215.74 0 109.48 0 0 Z " fill="#5393DB" transform="translate(8694,1610)"/>
<path d="M0 0 C743.82 0 1487.64 0 2254 0 C2254 106.26 2254 212.52 2254 322 C2466.52 322 2679.04 322 2898 322 C2898 428.26 2898 534.52 2898 644 C3004.26 644 3110.52 644 3220 644 C3220 537.74 3220 431.48 3220 322 C3432.52 322 3645.04 322 3864 322 C3864 215.74 3864 109.48 3864 0 C4289.04 0 4714.08 0 5152 0 C5152 212.52 5152 425.04 5152 644 C5045.74 644 4939.48 644 4830 644 C4830 856.52 4830 1069.04 4830 1288 C4723.74 1288 4617.48 1288 4508 1288 C4508 1394.26 4508 1500.52 4508 1610 C4295.48 1610 4082.96 1610 3864 1610 C3864 1716.26 3864 1822.52 3864 1932 C3757.74 1932 3651.48 1932 3542 1932 C3542 1825.74 3542 1719.48 3542 1610 C3329.48 1610 3116.96 1610 2898 1610 C2898 1503.74 2898 1397.48 2898 1288 C3004.26 1288 3110.52 1288 3220 1288 C3220 1181.74 3220 1075.48 3220 966 C2901.22 966 2582.44 966 2254 966 C2254 859.74 2254 753.48 2254 644 C1510.18 644 766.36 644 0 644 C0 750.26 0 856.52 0 966 C-318.78 966 -637.56 966 -966 966 C-966 859.74 -966 753.48 -966 644 C-859.74 644 -753.48 644 -644 644 C-644 537.74 -644 431.48 -644 322 C-431.48 322 -218.96 322 0 322 C0 215.74 0 109.48 0 0 Z " fill="#A6B5CB" transform="translate(3864,644)"/>
<path d="M0 0 C106.26 0 212.52 0 322 0 C322 106.26 322 212.52 322 322 C428.26 322 534.52 322 644 322 C644 428.26 644 534.52 644 644 C431.48 644 218.96 644 0 644 C0 856.52 0 1069.04 0 1288 C106.26 1288 212.52 1288 322 1288 C322 1394.26 322 1500.52 322 1610 C109.48 1610 -103.04 1610 -322 1610 C-322 1716.26 -322 1822.52 -322 1932 C-215.74 1932 -109.48 1932 0 1932 C0 2038.26 0 2144.52 0 2254 C212.52 2254 425.04 2254 644 2254 C644 2360.26 644 2466.52 644 2576 C750.26 2576 856.52 2576 966 2576 C966 2682.26 966 2788.52 966 2898 C1072.26 2898 1178.52 2898 1288 2898 C1288 3004.26 1288 3110.52 1288 3220 C650.44 3220 12.88 3220 -644 3220 C-644 3113.74 -644 3007.48 -644 2898 C-750.26 2898 -856.52 2898 -966 2898 C-966 2472.96 -966 2047.92 -966 1610 C-859.74 1610 -753.48 1610 -644 1610 C-644 1397.48 -644 1184.96 -644 966 C-537.74 966 -431.48 966 -322 966 C-322 753.48 -322 540.96 -322 322 C-215.74 322 -109.48 322 0 322 C0 215.74 0 109.48 0 0 Z " fill="#797F85" transform="translate(966,0)"/>
<path d="M0 0 C318.78 0 637.56 0 966 0 C966 106.26 966 212.52 966 322 C1072.26 322 1178.52 322 1288 322 C1288 747.04 1288 1172.08 1288 1610 C1181.74 1610 1075.48 1610 966 1610 C966 1716.26 966 1822.52 966 1932 C859.74 1932 753.48 1932 644 1932 C644 2038.26 644 2144.52 644 2254 C537.74 2254 431.48 2254 322 2254 C322 2147.74 322 2041.48 322 1932 C215.74 1932 109.48 1932 0 1932 C0 1825.74 0 1719.48 0 1610 C-106.26 1610 -212.52 1610 -322 1610 C-322 1184.96 -322 759.92 -322 322 C-215.74 322 -109.48 322 0 322 C0 215.74 0 109.48 0 0 Z " fill="#F1DE36" transform="translate(4508,4186)"/>
<path d="M0 0 C743.82 0 1487.64 0 2254 0 C2254 106.26 2254 212.52 2254 322 C2466.52 322 2679.04 322 2898 322 C2898 428.26 2898 534.52 2898 644 C3004.26 644 3110.52 644 3220 644 C3220 750.26 3220 856.52 3220 966 C2901.22 966 2582.44 966 2254 966 C2254 859.74 2254 753.48 2254 644 C1510.18 644 766.36 644 0 644 C0 750.26 0 856.52 0 966 C-318.78 966 -637.56 966 -966 966 C-966 859.74 -966 753.48 -966 644 C-859.74 644 -753.48 644 -644 644 C-644 537.74 -644 431.48 -644 322 C-431.48 322 -218.96 322 0 322 C0 215.74 0 109.48 0 0 Z " fill="#338AD6" transform="translate(3864,644)"/>
<path d="M0 0 C318.78 0 637.56 0 966 0 C966 318.78 966 637.56 966 966 C753.48 966 540.96 966 322 966 C322 859.74 322 753.48 322 644 C109.48 644 -103.04 644 -322 644 C-322 750.26 -322 856.52 -322 966 C-428.26 966 -534.52 966 -644 966 C-644 1072.26 -644 1178.52 -644 1288 C-750.26 1288 -856.52 1288 -966 1288 C-966 1394.26 -966 1500.52 -966 1610 C-1391.04 1610 -1816.08 1610 -2254 1610 C-2254 1503.74 -2254 1397.48 -2254 1288 C-2360.26 1288 -2466.52 1288 -2576 1288 C-2576 1181.74 -2576 1075.48 -2576 966 C-2044.7 966 -1513.4 966 -966 966 C-966 859.74 -966 753.48 -966 644 C-859.74 644 -753.48 644 -644 644 C-644 537.74 -644 431.48 -644 322 C-431.48 322 -218.96 322 0 322 C0 215.74 0 109.48 0 0 Z " fill="#A6B5CB" transform="translate(9016,4830)"/>
<path d="M0 0 C318.78 0 637.56 0 966 0 C966 106.26 966 212.52 966 322 C1178.52 322 1391.04 322 1610 322 C1610 428.26 1610 534.52 1610 644 C1716.26 644 1822.52 644 1932 644 C1932 750.26 1932 856.52 1932 966 C2463.3 966 2994.6 966 3542 966 C3542 1072.26 3542 1178.52 3542 1288 C3435.74 1288 3329.48 1288 3220 1288 C3220 1394.26 3220 1500.52 3220 1610 C2794.96 1610 2369.92 1610 1932 1610 C1932 1503.74 1932 1397.48 1932 1288 C1825.74 1288 1719.48 1288 1610 1288 C1610 1181.74 1610 1075.48 1610 966 C1503.74 966 1397.48 966 1288 966 C1288 859.74 1288 753.48 1288 644 C1075.48 644 862.96 644 644 644 C644 750.26 644 856.52 644 966 C431.48 966 218.96 966 0 966 C0 647.22 0 328.44 0 0 Z " fill="#A6B5CB" transform="translate(0,4830)"/>
<path d="M0 0 C425.04 0 850.08 0 1288 0 C1288 106.26 1288 212.52 1288 322 C1500.52 322 1713.04 322 1932 322 C1932 428.26 1932 534.52 1932 644 C1719.48 644 1506.96 644 1288 644 C1288 962.78 1288 1281.56 1288 1610 C862.96 1610 437.92 1610 0 1610 C0 1503.74 0 1397.48 0 1288 C-106.26 1288 -212.52 1288 -322 1288 C-322 1181.74 -322 1075.48 -322 966 C-109.48 966 103.04 966 322 966 C322 859.74 322 753.48 322 644 C215.74 644 109.48 644 0 644 C0 431.48 0 218.96 0 0 Z " fill="#A6B5CB" transform="translate(966,644)"/>
<path d="M0 0 C212.52 0 425.04 0 644 0 C644 106.26 644 212.52 644 322 C750.26 322 856.52 322 966 322 C966 428.26 966 534.52 966 644 C859.74 644 753.48 644 644 644 C644 750.26 644 856.52 644 966 C537.74 966 431.48 966 322 966 C322 1072.26 322 1178.52 322 1288 C215.74 1288 109.48 1288 0 1288 C0 1181.74 0 1075.48 0 966 C-212.52 966 -425.04 966 -644 966 C-644 1072.26 -644 1178.52 -644 1288 C-750.26 1288 -856.52 1288 -966 1288 C-966 1394.26 -966 1500.52 -966 1610 C-1284.78 1610 -1603.56 1610 -1932 1610 C-1932 1503.74 -1932 1397.48 -1932 1288 C-1719.48 1288 -1506.96 1288 -1288 1288 C-1288 1181.74 -1288 1075.48 -1288 966 C-1181.74 966 -1075.48 966 -966 966 C-966 859.74 -966 753.48 -966 644 C-753.48 644 -540.96 644 -322 644 C-322 537.74 -322 431.48 -322 322 C-215.74 322 -109.48 322 0 322 C0 215.74 0 109.48 0 0 Z " fill="#CBCBCB" transform="translate(8694,1610)"/>
<path d="M0 0 C212.52 0 425.04 0 644 0 C644 212.52 644 425.04 644 644 C750.26 644 856.52 644 966 644 C966 750.26 966 856.52 966 966 C753.48 966 540.96 966 322 966 C322 1178.52 322 1391.04 322 1610 C534.52 1610 747.04 1610 966 1610 C966 1716.26 966 1822.52 966 1932 C647.22 1932 328.44 1932 0 1932 C0 1825.74 0 1719.48 0 1610 C-106.26 1610 -212.52 1610 -322 1610 C-322 1503.74 -322 1397.48 -322 1288 C-428.26 1288 -534.52 1288 -644 1288 C-644 1181.74 -644 1075.48 -644 966 C-431.48 966 -218.96 966 0 966 C0 647.22 0 328.44 0 0 Z " fill="#5393DB" transform="translate(2254,1288)"/>
<path d="M0 0 C106.26 0 212.52 0 322 0 C322 106.26 322 212.52 322 322 C428.26 322 534.52 322 644 322 C644 534.52 644 747.04 644 966 C750.26 966 856.52 966 966 966 C966 1178.52 966 1391.04 966 1610 C1072.26 1610 1178.52 1610 1288 1610 C1288 2035.04 1288 2460.08 1288 2898 C1181.74 2898 1075.48 2898 966 2898 C966 2579.22 966 2260.44 966 1932 C859.74 1932 753.48 1932 644 1932 C644 1825.74 644 1719.48 644 1610 C431.48 1610 218.96 1610 0 1610 C0 1503.74 0 1397.48 0 1288 C106.26 1288 212.52 1288 322 1288 C322 1075.48 322 862.96 322 644 C109.48 644 -103.04 644 -322 644 C-322 537.74 -322 431.48 -322 322 C-215.74 322 -109.48 322 0 322 C0 215.74 0 109.48 0 0 Z " fill="#242424" transform="translate(8694,0)"/>
<path d="M0 0 C106.26 0 212.52 0 322 0 C322 106.26 322 212.52 322 322 C428.26 322 534.52 322 644 322 C644 428.26 644 534.52 644 644 C431.48 644 218.96 644 0 644 C0 856.52 0 1069.04 0 1288 C106.26 1288 212.52 1288 322 1288 C322 1394.26 322 1500.52 322 1610 C109.48 1610 -103.04 1610 -322 1610 C-322 1716.26 -322 1822.52 -322 1932 C-428.26 1932 -534.52 1932 -644 1932 C-644 2250.78 -644 2569.56 -644 2898 C-750.26 2898 -856.52 2898 -966 2898 C-966 2472.96 -966 2047.92 -966 1610 C-859.74 1610 -753.48 1610 -644 1610 C-644 1397.48 -644 1184.96 -644 966 C-537.74 966 -431.48 966 -322 966 C-322 753.48 -322 540.96 -322 322 C-215.74 322 -109.48 322 0 322 C0 215.74 0 109.48 0 0 Z " fill="#242424" transform="translate(966,0)"/>
<path d="M0 0 C743.82 0 1487.64 0 2254 0 C2254 106.26 2254 212.52 2254 322 C2147.74 322 2041.48 322 1932 322 C1932 428.26 1932 534.52 1932 644 C1400.7 644 869.4 644 322 644 C322 537.74 322 431.48 322 322 C215.74 322 109.48 322 0 322 C0 215.74 0 109.48 0 0 Z " fill="#5393DB" transform="translate(3864,1288)"/>
<path d="M0 0 C106.26 0 212.52 0 322 0 C322 318.78 322 637.56 322 966 C-315.56 966 -953.12 966 -1610 966 C-1610 859.74 -1610 753.48 -1610 644 C-1503.74 644 -1397.48 644 -1288 644 C-1288 537.74 -1288 431.48 -1288 322 C-1075.48 322 -862.96 322 -644 322 C-644 428.26 -644 534.52 -644 644 C-537.74 644 -431.48 644 -322 644 C-322 537.74 -322 431.48 -322 322 C-215.74 322 -109.48 322 0 322 C0 215.74 0 109.48 0 0 Z " fill="#797F85" transform="translate(9338,2254)"/>
<path d="M0 0 C531.3 0 1062.6 0 1610 0 C1610 212.52 1610 425.04 1610 644 C1078.7 644 547.4 644 0 644 C0 431.48 0 218.96 0 0 Z " fill="#8DBEF2" transform="translate(2576,2254)"/>
<path d="M0 0 C318.78 0 637.56 0 966 0 C966 106.26 966 212.52 966 322 C1072.26 322 1178.52 322 1288 322 C1288 534.52 1288 747.04 1288 966 C1181.74 966 1075.48 966 966 966 C966 859.74 966 753.48 966 644 C859.74 644 753.48 644 644 644 C644 537.74 644 431.48 644 322 C537.74 322 431.48 322 322 322 C322 428.26 322 534.52 322 644 C215.74 644 109.48 644 0 644 C0 750.26 0 856.52 0 966 C-106.26 966 -212.52 966 -322 966 C-322 753.48 -322 540.96 -322 322 C-215.74 322 -109.48 322 0 322 C0 215.74 0 109.48 0 0 Z " fill="#A6B5CB" transform="translate(4508,4186)"/>
<path d="M0 0 C212.52 0 425.04 0 644 0 C644 106.26 644 212.52 644 322 C856.52 322 1069.04 322 1288 322 C1288 428.26 1288 534.52 1288 644 C1075.48 644 862.96 644 644 644 C644 750.26 644 856.52 644 966 C537.74 966 431.48 966 322 966 C322 859.74 322 753.48 322 644 C109.48 644 -103.04 644 -322 644 C-322 537.74 -322 431.48 -322 322 C-215.74 322 -109.48 322 0 322 C0 215.74 0 109.48 0 0 Z " fill="#5393DB" transform="translate(7084,1610)"/>
<path d="M0 0 C212.52 0 425.04 0 644 0 C644 212.52 644 425.04 644 644 C750.26 644 856.52 644 966 644 C966 856.52 966 1069.04 966 1288 C859.74 1288 753.48 1288 644 1288 C644 1181.74 644 1075.48 644 966 C537.74 966 431.48 966 322 966 C322 859.74 322 753.48 322 644 C215.74 644 109.48 644 0 644 C0 431.48 0 218.96 0 0 Z " fill="#EFED8B" transform="translate(4186,5152)"/>
<path d="M0 0 C212.52 0 425.04 0 644 0 C644 106.26 644 212.52 644 322 C537.74 322 431.48 322 322 322 C322 428.26 322 534.52 322 644 C215.74 644 109.48 644 0 644 C0 750.26 0 856.52 0 966 C-318.78 966 -637.56 966 -966 966 C-966 859.74 -966 753.48 -966 644 C-753.48 644 -540.96 644 -322 644 C-322 537.74 -322 431.48 -322 322 C-215.74 322 -109.48 322 0 322 C0 215.74 0 109.48 0 0 Z " fill="#CBCBCB" transform="translate(7728,2254)"/>
<path d="M0 0 C212.52 0 425.04 0 644 0 C644 106.26 644 212.52 644 322 C750.26 322 856.52 322 966 322 C966 428.26 966 534.52 966 644 C1178.52 644 1391.04 644 1610 644 C1610 750.26 1610 856.52 1610 966 C1291.22 966 972.44 966 644 966 C644 859.74 644 753.48 644 644 C537.74 644 431.48 644 322 644 C322 537.74 322 431.48 322 322 C215.74 322 109.48 322 0 322 C0 215.74 0 109.48 0 0 Z " fill="#CBCBCB" transform="translate(1610,2254)"/>
<path d="M0 0 C106.26 0 212.52 0 322 0 C322 212.52 322 425.04 322 644 C428.26 644 534.52 644 644 644 C644 1069.04 644 1494.08 644 1932 C537.74 1932 431.48 1932 322 1932 C322 1613.22 322 1294.44 322 966 C215.74 966 109.48 966 0 966 C0 647.22 0 328.44 0 0 Z " fill="#000000" transform="translate(9338,966)"/>
<path d="M0 0 C106.26 0 212.52 0 322 0 C322 318.78 322 637.56 322 966 C215.74 966 109.48 966 0 966 C0 1284.78 0 1603.56 0 1932 C-106.26 1932 -212.52 1932 -322 1932 C-322 1506.96 -322 1081.92 -322 644 C-215.74 644 -109.48 644 0 644 C0 431.48 0 218.96 0 0 Z " fill="#000000" transform="translate(322,966)"/>
<path d="M0 0 C743.82 0 1487.64 0 2254 0 C2254 106.26 2254 212.52 2254 322 C1510.18 322 766.36 322 0 322 C0 215.74 0 109.48 0 0 Z " fill="#000000" transform="translate(3864,644)"/>
<path d="M0 0 C318.78 0 637.56 0 966 0 C966 106.26 966 212.52 966 322 C859.74 322 753.48 322 644 322 C644 428.26 644 534.52 644 644 C325.22 644 6.44 644 -322 644 C-322 537.74 -322 431.48 -322 322 C-215.74 322 -109.48 322 0 322 C0 215.74 0 109.48 0 0 Z " fill="#FFFFFF" transform="translate(7406,4186)"/>
<path d="M0 0 C318.78 0 637.56 0 966 0 C966 106.26 966 212.52 966 322 C859.74 322 753.48 322 644 322 C644 428.26 644 534.52 644 644 C325.22 644 6.44 644 -322 644 C-322 537.74 -322 431.48 -322 322 C-215.74 322 -109.48 322 0 322 C0 215.74 0 109.48 0 0 Z " fill="#FFFFFF" transform="translate(2576,4186)"/>
<path d="M0 0 C531.3 0 1062.6 0 1610 0 C1610 106.26 1610 212.52 1610 322 C1078.7 322 547.4 322 0 322 C0 215.74 0 109.48 0 0 Z " fill="#000000" transform="translate(5474,8050)"/>
<path d="M0 0 C531.3 0 1062.6 0 1610 0 C1610 106.26 1610 212.52 1610 322 C1078.7 322 547.4 322 0 322 C0 215.74 0 109.48 0 0 Z " fill="#000000" transform="translate(2898,8050)"/>
<path d="M0 0 C531.3 0 1062.6 0 1610 0 C1610 106.26 1610 212.52 1610 322 C1078.7 322 547.4 322 0 322 C0 215.74 0 109.48 0 0 Z " fill="#8DBEF2" transform="translate(4186,2576)"/>
<path d="M0 0 C212.52 0 425.04 0 644 0 C644 106.26 644 212.52 644 322 C750.26 322 856.52 322 966 322 C966 428.26 966 534.52 966 644 C647.22 644 328.44 644 0 644 C0 431.48 0 218.96 0 0 Z " fill="#338AD6" transform="translate(6118,966)"/>
<path d="M0 0 C212.52 0 425.04 0 644 0 C644 212.52 644 425.04 644 644 C325.22 644 6.44 644 -322 644 C-322 537.74 -322 431.48 -322 322 C-215.74 322 -109.48 322 0 322 C0 215.74 0 109.48 0 0 Z " fill="#338AD6" transform="translate(3220,966)"/>
<path d="M0 0 C106.26 0 212.52 0 322 0 C322 106.26 322 212.52 322 322 C428.26 322 534.52 322 644 322 C644 428.26 644 534.52 644 644 C325.22 644 6.44 644 -322 644 C-322 537.74 -322 431.48 -322 322 C-215.74 322 -109.48 322 0 322 C0 215.74 0 109.48 0 0 Z " fill="#EFED8B" transform="translate(4830,4508)"/>
<path d="M0 0 C212.52 0 425.04 0 644 0 C644 106.26 644 212.52 644 322 C750.26 322 856.52 322 966 322 C966 428.26 966 534.52 966 644 C753.48 644 540.96 644 322 644 C322 537.74 322 431.48 322 322 C215.74 322 109.48 322 0 322 C0 215.74 0 109.48 0 0 Z " fill="#A6B5CB" transform="translate(3542,2898)"/>
<path d="M0 0 C212.52 0 425.04 0 644 0 C644 106.26 644 212.52 644 322 C750.26 322 856.52 322 966 322 C966 428.26 966 534.52 966 644 C753.48 644 540.96 644 322 644 C322 537.74 322 431.48 322 322 C215.74 322 109.48 322 0 322 C0 215.74 0 109.48 0 0 Z " fill="#CBCBCB" transform="translate(644,1610)"/>
<path d="M0 0 C425.04 0 850.08 0 1288 0 C1288 106.26 1288 212.52 1288 322 C862.96 322 437.92 322 0 322 C0 215.74 0 109.48 0 0 Z " fill="#8DBEF2" transform="translate(7084,966)"/>
<path d="M0 0 C318.78 0 637.56 0 966 0 C966 106.26 966 212.52 966 322 C647.22 322 328.44 322 0 322 C0 215.74 0 109.48 0 0 Z " fill="#000000" transform="translate(4508,8372)"/>
<path d="M0 0 C318.78 0 637.56 0 966 0 C966 106.26 966 212.52 966 322 C647.22 322 328.44 322 0 322 C0 215.74 0 109.48 0 0 Z " fill="#000000" transform="translate(7084,7728)"/>
<path d="M0 0 C318.78 0 637.56 0 966 0 C966 106.26 966 212.52 966 322 C647.22 322 328.44 322 0 322 C0 215.74 0 109.48 0 0 Z " fill="#000000" transform="translate(1932,7728)"/>
<path d="M0 0 C106.26 0 212.52 0 322 0 C322 318.78 322 637.56 322 966 C215.74 966 109.48 966 0 966 C0 647.22 0 328.44 0 0 Z " fill="#000000" transform="translate(9660,4830)"/>
<path d="M0 0 C106.26 0 212.52 0 322 0 C322 318.78 322 637.56 322 966 C215.74 966 109.48 966 0 966 C0 647.22 0 328.44 0 0 Z " fill="#000000" transform="translate(0,4830)"/>
<path d="M0 0 C318.78 0 637.56 0 966 0 C966 106.26 966 212.52 966 322 C647.22 322 328.44 322 0 322 C0 215.74 0 109.48 0 0 Z " fill="#A6B5CB" transform="translate(4508,3542)"/>
<path d="M0 0 C106.26 0 212.52 0 322 0 C322 318.78 322 637.56 322 966 C215.74 966 109.48 966 0 966 C0 647.22 0 328.44 0 0 Z " fill="#000000" transform="translate(9016,3220)"/>
<path d="M0 0 C106.26 0 212.52 0 322 0 C322 318.78 322 637.56 322 966 C215.74 966 109.48 966 0 966 C0 647.22 0 328.44 0 0 Z " fill="#000000" transform="translate(644,3220)"/>
<path d="M0 0 C212.52 0 425.04 0 644 0 C644 212.52 644 425.04 644 644 C537.74 644 431.48 644 322 644 C322 537.74 322 431.48 322 322 C215.74 322 109.48 322 0 322 C0 215.74 0 109.48 0 0 Z " fill="#797F85" transform="translate(966,2254)"/>
<path d="M0 0 C106.26 0 212.52 0 322 0 C322 318.78 322 637.56 322 966 C215.74 966 109.48 966 0 966 C0 647.22 0 328.44 0 0 Z " fill="#000000" transform="translate(9338,966)"/>
<path d="M0 0 C106.26 0 212.52 0 322 0 C322 318.78 322 637.56 322 966 C215.74 966 109.48 966 0 966 C0 647.22 0 328.44 0 0 Z " fill="#000000" transform="translate(322,966)"/>
<path d="M0 0 C106.26 0 212.52 0 322 0 C322 212.52 322 425.04 322 644 C109.48 644 -103.04 644 -322 644 C-322 537.74 -322 431.48 -322 322 C-215.74 322 -109.48 322 0 322 C0 215.74 0 109.48 0 0 Z " fill="#8DBEF2" transform="translate(8694,0)"/>
<path d="M0 0 C106.26 0 212.52 0 322 0 C322 106.26 322 212.52 322 322 C428.26 322 534.52 322 644 322 C644 428.26 644 534.52 644 644 C431.48 644 218.96 644 0 644 C0 431.48 0 218.96 0 0 Z " fill="#8DBEF2" transform="translate(966,0)"/>
<path d="M0 0 C212.52 0 425.04 0 644 0 C644 106.26 644 212.52 644 322 C431.48 322 218.96 322 0 322 C0 215.74 0 109.48 0 0 Z " fill="#000000" transform="translate(8050,7406)"/>
<path d="M0 0 C212.52 0 425.04 0 644 0 C644 106.26 644 212.52 644 322 C431.48 322 218.96 322 0 322 C0 215.74 0 109.48 0 0 Z " fill="#000000" transform="translate(1288,7406)"/>
<path d="M0 0 C106.26 0 212.52 0 322 0 C322 212.52 322 425.04 322 644 C215.74 644 109.48 644 0 644 C0 431.48 0 218.96 0 0 Z " fill="#000000" transform="translate(9016,6440)"/>
<path d="M0 0 C106.26 0 212.52 0 322 0 C322 212.52 322 425.04 322 644 C215.74 644 109.48 644 0 644 C0 431.48 0 218.96 0 0 Z " fill="#000000" transform="translate(644,6440)"/>
<path d="M0 0 C106.26 0 212.52 0 322 0 C322 212.52 322 425.04 322 644 C215.74 644 109.48 644 0 644 C0 431.48 0 218.96 0 0 Z " fill="#000000" transform="translate(9338,5796)"/>
<path d="M0 0 C106.26 0 212.52 0 322 0 C322 212.52 322 425.04 322 644 C215.74 644 109.48 644 0 644 C0 431.48 0 218.96 0 0 Z " fill="#000000" transform="translate(322,5796)"/>
<path d="M0 0 C106.26 0 212.52 0 322 0 C322 212.52 322 425.04 322 644 C215.74 644 109.48 644 0 644 C0 431.48 0 218.96 0 0 Z " fill="#FCA219" transform="translate(5474,5152)"/>
<path d="M0 0 C106.26 0 212.52 0 322 0 C322 212.52 322 425.04 322 644 C215.74 644 109.48 644 0 644 C0 431.48 0 218.96 0 0 Z " fill="#FCA219" transform="translate(4186,5152)"/>
<path d="M0 0 C106.26 0 212.52 0 322 0 C322 212.52 322 425.04 322 644 C215.74 644 109.48 644 0 644 C0 431.48 0 218.96 0 0 Z " fill="#000000" transform="translate(9338,4186)"/>
<path d="M0 0 C106.26 0 212.52 0 322 0 C322 212.52 322 425.04 322 644 C215.74 644 109.48 644 0 644 C0 431.48 0 218.96 0 0 Z " fill="#000000" transform="translate(322,4186)"/>
<path d="M0 0 C212.52 0 425.04 0 644 0 C644 106.26 644 212.52 644 322 C431.48 322 218.96 322 0 322 C0 215.74 0 109.48 0 0 Z " fill="#A6B5CB" transform="translate(5474,3220)"/>
<path d="M0 0 C212.52 0 425.04 0 644 0 C644 106.26 644 212.52 644 322 C431.48 322 218.96 322 0 322 C0 215.74 0 109.48 0 0 Z " fill="#242424" transform="translate(6762,2576)"/>
<path d="M0 0 C212.52 0 425.04 0 644 0 C644 106.26 644 212.52 644 322 C431.48 322 218.96 322 0 322 C0 215.74 0 109.48 0 0 Z " fill="#5393DB" transform="translate(3542,2576)"/>
<path d="M0 0 C212.52 0 425.04 0 644 0 C644 106.26 644 212.52 644 322 C431.48 322 218.96 322 0 322 C0 215.74 0 109.48 0 0 Z " fill="#242424" transform="translate(2576,2576)"/>
<path d="M0 0 C212.52 0 425.04 0 644 0 C644 106.26 644 212.52 644 322 C431.48 322 218.96 322 0 322 C0 215.74 0 109.48 0 0 Z " fill="#A6B5CB" transform="translate(6762,2254)"/>
<path d="M0 0 C212.52 0 425.04 0 644 0 C644 106.26 644 212.52 644 322 C431.48 322 218.96 322 0 322 C0 215.74 0 109.48 0 0 Z " fill="#A6B5CB" transform="translate(2576,2254)"/>
<path d="M0 0 C212.52 0 425.04 0 644 0 C644 106.26 644 212.52 644 322 C431.48 322 218.96 322 0 322 C0 215.74 0 109.48 0 0 Z " fill="#242424" transform="translate(7728,1932)"/>
<path d="M0 0 C212.52 0 425.04 0 644 0 C644 106.26 644 212.52 644 322 C431.48 322 218.96 322 0 322 C0 215.74 0 109.48 0 0 Z " fill="#242424" transform="translate(1610,1932)"/>
<path d="M0 0 C212.52 0 425.04 0 644 0 C644 106.26 644 212.52 644 322 C431.48 322 218.96 322 0 322 C0 215.74 0 109.48 0 0 Z " fill="#8DBEF2" transform="translate(7084,1288)"/>
<path d="M0 0 C212.52 0 425.04 0 644 0 C644 106.26 644 212.52 644 322 C431.48 322 218.96 322 0 322 C0 215.74 0 109.48 0 0 Z " fill="#AED1F5" transform="translate(2254,1288)"/>
<path d="M0 0 C212.52 0 425.04 0 644 0 C644 106.26 644 212.52 644 322 C431.48 322 218.96 322 0 322 C0 215.74 0 109.48 0 0 Z " fill="#000000" transform="translate(7084,966)"/>
<path d="M0 0 C212.52 0 425.04 0 644 0 C644 106.26 644 212.52 644 322 C431.48 322 218.96 322 0 322 C0 215.74 0 109.48 0 0 Z " fill="#000000" transform="translate(6118,966)"/>
<path d="M0 0 C212.52 0 425.04 0 644 0 C644 106.26 644 212.52 644 322 C431.48 322 218.96 322 0 322 C0 215.74 0 109.48 0 0 Z " fill="#000000" transform="translate(3220,966)"/>
<path d="M0 0 C212.52 0 425.04 0 644 0 C644 106.26 644 212.52 644 322 C431.48 322 218.96 322 0 322 C0 215.74 0 109.48 0 0 Z " fill="#000000" transform="translate(2254,966)"/>
<path d="M0 0 C212.52 0 425.04 0 644 0 C644 106.26 644 212.52 644 322 C431.48 322 218.96 322 0 322 C0 215.74 0 109.48 0 0 Z " fill="#AED1F5" transform="translate(1610,966)"/>
<path d="M0 0 C212.52 0 425.04 0 644 0 C644 106.26 644 212.52 644 322 C431.48 322 218.96 322 0 322 C0 215.74 0 109.48 0 0 Z " fill="#000000" transform="translate(7728,644)"/>
<path d="M0 0 C212.52 0 425.04 0 644 0 C644 106.26 644 212.52 644 322 C431.48 322 218.96 322 0 322 C0 215.74 0 109.48 0 0 Z " fill="#000000" transform="translate(1610,644)"/>
<path d="M0 0 C106.26 0 212.52 0 322 0 C322 212.52 322 425.04 322 644 C215.74 644 109.48 644 0 644 C0 431.48 0 218.96 0 0 Z " fill="#000000" transform="translate(9016,322)"/>
<path d="M0 0 C106.26 0 212.52 0 322 0 C322 212.52 322 425.04 322 644 C215.74 644 109.48 644 0 644 C0 431.48 0 218.96 0 0 Z " fill="#000000" transform="translate(644,322)"/>
<path d="M0 0 C106.26 0 212.52 0 322 0 C322 106.26 322 212.52 322 322 C215.74 322 109.48 322 0 322 C0 215.74 0 109.48 0 0 Z " fill="#000000" transform="translate(8694,7084)"/>
<path d="M0 0 C106.26 0 212.52 0 322 0 C322 106.26 322 212.52 322 322 C215.74 322 109.48 322 0 322 C0 215.74 0 109.48 0 0 Z " fill="#000000" transform="translate(966,7084)"/>
<path d="M0 0 C106.26 0 212.52 0 322 0 C322 106.26 322 212.52 322 322 C215.74 322 109.48 322 0 322 C0 215.74 0 109.48 0 0 Z " fill="#FCA219" transform="translate(4830,6118)"/>
<path d="M0 0 C106.26 0 212.52 0 322 0 C322 106.26 322 212.52 322 322 C215.74 322 109.48 322 0 322 C0 215.74 0 109.48 0 0 Z " fill="#FCA219" transform="translate(5152,5796)"/>
<path d="M0 0 C106.26 0 212.52 0 322 0 C322 106.26 322 212.52 322 322 C215.74 322 109.48 322 0 322 C0 215.74 0 109.48 0 0 Z " fill="#EFED8B" transform="translate(4830,5796)"/>
<path d="M0 0 C106.26 0 212.52 0 322 0 C322 106.26 322 212.52 322 322 C215.74 322 109.48 322 0 322 C0 215.74 0 109.48 0 0 Z " fill="#FCA219" transform="translate(4508,5796)"/>
<path d="M0 0 C106.26 0 212.52 0 322 0 C322 106.26 322 212.52 322 322 C215.74 322 109.48 322 0 322 C0 215.74 0 109.48 0 0 Z " fill="#A6B5CB" transform="translate(6118,5474)"/>
<path d="M0 0 C106.26 0 212.52 0 322 0 C322 106.26 322 212.52 322 322 C215.74 322 109.48 322 0 322 C0 215.74 0 109.48 0 0 Z " fill="#A6B5CB" transform="translate(3542,5474)"/>
<path d="M0 0 C106.26 0 212.52 0 322 0 C322 106.26 322 212.52 322 322 C215.74 322 109.48 322 0 322 C0 215.74 0 109.48 0 0 Z " fill="#A6B5CB" transform="translate(5796,5152)"/>
<path d="M0 0 C106.26 0 212.52 0 322 0 C322 106.26 322 212.52 322 322 C215.74 322 109.48 322 0 322 C0 215.74 0 109.48 0 0 Z " fill="#A6B5CB" transform="translate(3864,5152)"/>
<path d="M0 0 C106.26 0 212.52 0 322 0 C322 106.26 322 212.52 322 322 C215.74 322 109.48 322 0 322 C0 215.74 0 109.48 0 0 Z " fill="#FCA219" transform="translate(5152,4830)"/>
<path d="M0 0 C106.26 0 212.52 0 322 0 C322 106.26 322 212.52 322 322 C215.74 322 109.48 322 0 322 C0 215.74 0 109.48 0 0 Z " fill="#FCA219" transform="translate(4508,4830)"/>
<path d="M0 0 C106.26 0 212.52 0 322 0 C322 106.26 322 212.52 322 322 C215.74 322 109.48 322 0 322 C0 215.74 0 109.48 0 0 Z " fill="#FCA219" transform="translate(4830,4508)"/>
<path d="M0 0 C106.26 0 212.52 0 322 0 C322 106.26 322 212.52 322 322 C215.74 322 109.48 322 0 322 C0 215.74 0 109.48 0 0 Z " fill="#242424" transform="translate(8694,3220)"/>
<path d="M0 0 C106.26 0 212.52 0 322 0 C322 106.26 322 212.52 322 322 C215.74 322 109.48 322 0 322 C0 215.74 0 109.48 0 0 Z " fill="#242424" transform="translate(966,3220)"/>
<path d="M0 0 C106.26 0 212.52 0 322 0 C322 106.26 322 212.52 322 322 C215.74 322 109.48 322 0 322 C0 215.74 0 109.48 0 0 Z " fill="#000000" transform="translate(9338,2898)"/>
<path d="M0 0 C106.26 0 212.52 0 322 0 C322 106.26 322 212.52 322 322 C215.74 322 109.48 322 0 322 C0 215.74 0 109.48 0 0 Z " fill="#242424" transform="translate(6440,2898)"/>
<path d="M0 0 C106.26 0 212.52 0 322 0 C322 106.26 322 212.52 322 322 C215.74 322 109.48 322 0 322 C0 215.74 0 109.48 0 0 Z " fill="#A6B5CB" transform="translate(6118,2898)"/>
<path d="M0 0 C106.26 0 212.52 0 322 0 C322 106.26 322 212.52 322 322 C215.74 322 109.48 322 0 322 C0 215.74 0 109.48 0 0 Z " fill="#242424" transform="translate(3220,2898)"/>
<path d="M0 0 C106.26 0 212.52 0 322 0 C322 106.26 322 212.52 322 322 C215.74 322 109.48 322 0 322 C0 215.74 0 109.48 0 0 Z " fill="#000000" transform="translate(322,2898)"/>
<path d="M0 0 C106.26 0 212.52 0 322 0 C322 106.26 322 212.52 322 322 C215.74 322 109.48 322 0 322 C0 215.74 0 109.48 0 0 Z " fill="#CBCBCB" transform="translate(8694,2576)"/>
<path d="M0 0 C106.26 0 212.52 0 322 0 C322 106.26 322 212.52 322 322 C215.74 322 109.48 322 0 322 C0 215.74 0 109.48 0 0 Z " fill="#242424" transform="translate(8372,2576)"/>
<path d="M0 0 C106.26 0 212.52 0 322 0 C322 106.26 322 212.52 322 322 C215.74 322 109.48 322 0 322 C0 215.74 0 109.48 0 0 Z " fill="#A6B5CB" transform="translate(6440,2576)"/>
<path d="M0 0 C106.26 0 212.52 0 322 0 C322 106.26 322 212.52 322 322 C215.74 322 109.48 322 0 322 C0 215.74 0 109.48 0 0 Z " fill="#A6B5CB" transform="translate(3220,2576)"/>
<path d="M0 0 C106.26 0 212.52 0 322 0 C322 106.26 322 212.52 322 322 C215.74 322 109.48 322 0 322 C0 215.74 0 109.48 0 0 Z " fill="#242424" transform="translate(1288,2576)"/>
<path d="M0 0 C106.26 0 212.52 0 322 0 C322 106.26 322 212.52 322 322 C215.74 322 109.48 322 0 322 C0 215.74 0 109.48 0 0 Z " fill="#CBCBCB" transform="translate(966,2576)"/>
<path d="M0 0 C106.26 0 212.52 0 322 0 C322 106.26 322 212.52 322 322 C215.74 322 109.48 322 0 322 C0 215.74 0 109.48 0 0 Z " fill="#CBCBCB" transform="translate(9016,2254)"/>
<path d="M0 0 C106.26 0 212.52 0 322 0 C322 106.26 322 212.52 322 322 C215.74 322 109.48 322 0 322 C0 215.74 0 109.48 0 0 Z " fill="#242424" transform="translate(8694,2254)"/>
<path d="M0 0 C106.26 0 212.52 0 322 0 C322 106.26 322 212.52 322 322 C215.74 322 109.48 322 0 322 C0 215.74 0 109.48 0 0 Z " fill="#797F85" transform="translate(8372,2254)"/>
<path d="M0 0 C106.26 0 212.52 0 322 0 C322 106.26 322 212.52 322 322 C215.74 322 109.48 322 0 322 C0 215.74 0 109.48 0 0 Z " fill="#242424" transform="translate(7406,2254)"/>
<path d="M0 0 C106.26 0 212.52 0 322 0 C322 106.26 322 212.52 322 322 C215.74 322 109.48 322 0 322 C0 215.74 0 109.48 0 0 Z " fill="#8DBEF2" transform="translate(5796,2254)"/>
<path d="M0 0 C106.26 0 212.52 0 322 0 C322 106.26 322 212.52 322 322 C215.74 322 109.48 322 0 322 C0 215.74 0 109.48 0 0 Z " fill="#5393DB" transform="translate(3220,2254)"/>
<path d="M0 0 C106.26 0 212.52 0 322 0 C322 106.26 322 212.52 322 322 C215.74 322 109.48 322 0 322 C0 215.74 0 109.48 0 0 Z " fill="#242424" transform="translate(2254,2254)"/>
<path d="M0 0 C106.26 0 212.52 0 322 0 C322 106.26 322 212.52 322 322 C215.74 322 109.48 322 0 322 C0 215.74 0 109.48 0 0 Z " fill="#242424" transform="translate(966,2254)"/>
<path d="M0 0 C106.26 0 212.52 0 322 0 C322 106.26 322 212.52 322 322 C215.74 322 109.48 322 0 322 C0 215.74 0 109.48 0 0 Z " fill="#CBCBCB" transform="translate(644,2254)"/>
<path d="M0 0 C106.26 0 212.52 0 322 0 C322 106.26 322 212.52 322 322 C215.74 322 109.48 322 0 322 C0 215.74 0 109.48 0 0 Z " fill="#CBCBCB" transform="translate(9338,1932)"/>
<path d="M0 0 C106.26 0 212.52 0 322 0 C322 106.26 322 212.52 322 322 C215.74 322 109.48 322 0 322 C0 215.74 0 109.48 0 0 Z " fill="#242424" transform="translate(9016,1932)"/>
<path d="M0 0 C106.26 0 212.52 0 322 0 C322 106.26 322 212.52 322 322 C215.74 322 109.48 322 0 322 C0 215.74 0 109.48 0 0 Z " fill="#A6B5CB" transform="translate(7406,1932)"/>
<path d="M0 0 C106.26 0 212.52 0 322 0 C322 106.26 322 212.52 322 322 C215.74 322 109.48 322 0 322 C0 215.74 0 109.48 0 0 Z " fill="#8DBEF2" transform="translate(6440,1932)"/>
<path d="M0 0 C106.26 0 212.52 0 322 0 C322 106.26 322 212.52 322 322 C215.74 322 109.48 322 0 322 C0 215.74 0 109.48 0 0 Z " fill="#8DBEF2" transform="translate(3220,1932)"/>
<path d="M0 0 C106.26 0 212.52 0 322 0 C322 106.26 322 212.52 322 322 C215.74 322 109.48 322 0 322 C0 215.74 0 109.48 0 0 Z " fill="#A6B5CB" transform="translate(2254,1932)"/>
<path d="M0 0 C106.26 0 212.52 0 322 0 C322 106.26 322 212.52 322 322 C215.74 322 109.48 322 0 322 C0 215.74 0 109.48 0 0 Z " fill="#242424" transform="translate(644,1932)"/>
<path d="M0 0 C106.26 0 212.52 0 322 0 C322 106.26 322 212.52 322 322 C215.74 322 109.48 322 0 322 C0 215.74 0 109.48 0 0 Z " fill="#CBCBCB" transform="translate(322,1932)"/>
<path d="M0 0 C106.26 0 212.52 0 322 0 C322 106.26 322 212.52 322 322 C215.74 322 109.48 322 0 322 C0 215.74 0 109.48 0 0 Z " fill="#242424" transform="translate(9338,1610)"/>
<path d="M0 0 C106.26 0 212.52 0 322 0 C322 106.26 322 212.52 322 322 C215.74 322 109.48 322 0 322 C0 215.74 0 109.48 0 0 Z " fill="#242424" transform="translate(8372,1610)"/>
<path d="M0 0 C106.26 0 212.52 0 322 0 C322 106.26 322 212.52 322 322 C215.74 322 109.48 322 0 322 C0 215.74 0 109.48 0 0 Z " fill="#8DBEF2" transform="translate(6762,1610)"/>
<path d="M0 0 C106.26 0 212.52 0 322 0 C322 106.26 322 212.52 322 322 C215.74 322 109.48 322 0 322 C0 215.74 0 109.48 0 0 Z " fill="#8DBEF2" transform="translate(2898,1610)"/>
<path d="M0 0 C106.26 0 212.52 0 322 0 C322 106.26 322 212.52 322 322 C215.74 322 109.48 322 0 322 C0 215.74 0 109.48 0 0 Z " fill="#242424" transform="translate(1288,1610)"/>
<path d="M0 0 C106.26 0 212.52 0 322 0 C322 106.26 322 212.52 322 322 C215.74 322 109.48 322 0 322 C0 215.74 0 109.48 0 0 Z " fill="#242424" transform="translate(322,1610)"/>
<path d="M0 0 C106.26 0 212.52 0 322 0 C322 106.26 322 212.52 322 322 C215.74 322 109.48 322 0 322 C0 215.74 0 109.48 0 0 Z " fill="#AED1F5" transform="translate(7084,1288)"/>
<path d="M0 0 C106.26 0 212.52 0 322 0 C322 106.26 322 212.52 322 322 C215.74 322 109.48 322 0 322 C0 215.74 0 109.48 0 0 Z " fill="#000000" transform="translate(6762,1288)"/>
<path d="M0 0 C106.26 0 212.52 0 322 0 C322 106.26 322 212.52 322 322 C215.74 322 109.48 322 0 322 C0 215.74 0 109.48 0 0 Z " fill="#000000" transform="translate(2898,1288)"/>
<path d="M0 0 C106.26 0 212.52 0 322 0 C322 106.26 322 212.52 322 322 C215.74 322 109.48 322 0 322 C0 215.74 0 109.48 0 0 Z " fill="#8DBEF2" transform="translate(2254,1288)"/>
<path d="M0 0 C106.26 0 212.52 0 322 0 C322 106.26 322 212.52 322 322 C215.74 322 109.48 322 0 322 C0 215.74 0 109.48 0 0 Z " fill="#8DBEF2" transform="translate(1610,966)"/>
<path d="M0 0 C106.26 0 212.52 0 322 0 C322 106.26 322 212.52 322 322 C215.74 322 109.48 322 0 322 C0 215.74 0 109.48 0 0 Z " fill="#8DBEF2" transform="translate(8372,644)"/>
<path d="M0 0 C106.26 0 212.52 0 322 0 C322 106.26 322 212.52 322 322 C215.74 322 109.48 322 0 322 C0 215.74 0 109.48 0 0 Z " fill="#8DBEF2" transform="translate(1288,644)"/>
<path d="M0 0 C106.26 0 212.52 0 322 0 C322 106.26 322 212.52 322 322 C215.74 322 109.48 322 0 322 C0 215.74 0 109.48 0 0 Z " fill="#000000" transform="translate(8372,322)"/>
<path d="M0 0 C106.26 0 212.52 0 322 0 C322 106.26 322 212.52 322 322 C215.74 322 109.48 322 0 322 C0 215.74 0 109.48 0 0 Z " fill="#000000" transform="translate(1288,322)"/>
<path d="M0 0 C106.26 0 212.52 0 322 0 C322 106.26 322 212.52 322 322 C215.74 322 109.48 322 0 322 C0 215.74 0 109.48 0 0 Z " fill="#000000" transform="translate(8694,0)"/>
<path d="M0 0 C106.26 0 212.52 0 322 0 C322 106.26 322 212.52 322 322 C215.74 322 109.48 322 0 322 C0 215.74 0 109.48 0 0 Z " fill="#000000" transform="translate(966,0)"/>
</svg>
